<svg xmlns="http://www.w3.org/2000/svg" viewBox="0 0 15.57 12.7" fill="#ffa303">
    <g id="Camada_2" data-name="Camada 2">
        <g id="Camada_1-2" data-name="Camada 1">
            <path d="M15.57,8c0-.23-.31-1.36-3.13-1.92v-1A2.79,2.79,0,1,0,8.75,5V6.12C5.93,6.68,5.65,7.81,5.62,8V12.7h.85V8.14c0-.09.41-.8,2.57-1.21l1.08,1V12.7H11V8.08l1.2-1.15c2.13.4,2.51,1.09,2.57,1.22V12.7h.85V8ZM8.72,3a1.94,1.94,0,1,1,1.94,1.93A1.94,1.94,0,0,1,8.72,3ZM9.6,6.29V5.53a2.82,2.82,0,0,0,1.06.21,2.88,2.88,0,0,0,.93-.16v.71l-1,1Z"/><path d="M4.74,2.27a1.5,1.5,0,0,0,.2-.75,1.53,1.53,0,0,0-3.05,0,1.5,1.5,0,0,0,.2.75A2.77,2.77,0,0,0,2,7.11V8C.18,8.9.11,9.3.08,9.45L0,9.83V12.7H.85V10L.9,9.67a7,7,0,0,1,1.46-.85L3,9.43V12.7h.85V9.43l1.1-1V7a2.78,2.78,0,0,0-.2-4.77ZM3.42.85a.67.67,0,0,1,.67.67A.68.68,0,0,1,3.93,2H3.84a3,3,0,0,0-.42,0,2.92,2.92,0,0,0-.51,0,.66.66,0,0,1-.17-.45A.67.67,0,0,1,3.42.85ZM4.09,8l-.67.64-.56-.53V7.44a2.59,2.59,0,0,0,.56,0,2.46,2.46,0,0,0,.67-.08ZM3.42,6.65A1.94,1.94,0,0,1,1.48,4.71,1.92,1.92,0,0,1,3,2.83a1.61,1.61,0,0,1,.44-.05,2.19,2.19,0,0,1,.36,0,1.94,1.94,0,0,1-.36,3.84Z"/>
        </g>
    </g>
</svg>