<svg xmlns="http://www.w3.org/2000/svg" viewBox="0 0 89.51 92.76" fill="#ffa303"><g id="Camada_2" data-name="Camada 2"><g id="Camada_1-2" data-name="Camada 1"><path d="M54.52,57.31A28.66,28.66,0,1,1,83.17,28.66,28.69,28.69,0,0,1,54.52,57.31ZM54.52,6A22.66,22.66,0,1,0,77.17,28.66,22.69,22.69,0,0,0,54.52,6Z"/><path d="M88.6,57.6c-2-3.17-6-2.75-7.86-2.55-.23,0-.43.05-.57.05-2.17,0-3.81,1.79-8.66,7.46-.84,1-1.94,2.27-3.07,3.54l-.13-.24c-2-3.44-6.25-4.55-8-4.55-.29,0-.61,0-1,0-1.79.13-5.53.4-17-4.75a21.73,21.73,0,0,0-25.14,4.7H8.28c-.32,0-.63,0-.94,0A8.29,8.29,0,0,0,0,69.58v14.9a8.29,8.29,0,0,0,8.28,8.28H63l.17,0C64.21,92.62,74,91,84.6,73.52,89.36,65.65,90.59,60.74,88.6,57.6Zm-78,26.88a2.28,2.28,0,1,1-4.55,0V69.58a2.28,2.28,0,0,1,4.55,0ZM79.47,70.41c-8.5,14-16,16.14-16.93,16.35H16.23a8.16,8.16,0,0,0,.32-2.28V69.58a8.09,8.09,0,0,0-.32-2.27H20l.9-1.14a15.78,15.78,0,0,1,19-4.08c12.89,5.77,17.47,5.44,19.93,5.26l.52,0a4.22,4.22,0,0,1,2.84,1.58A2.31,2.31,0,0,1,63,70.8c-4.37-.14-15.18,0-15.68,0l.1,6c4.49-.07,13.66-.17,16.18,0,3.06.2,6-2.85,12.44-10.37A69.86,69.86,0,0,1,81,61.06l.41,0A10.09,10.09,0,0,1,83.52,61C83.56,61.63,83.31,64.06,79.47,70.41Z"/><path d="M8.28,61.31c-.32,0-.63,0-.94,0v0Z"/><polygon points="53.47 36.95 46.37 30.95 50.25 26.37 53.08 28.77 60.03 21.66 64.32 25.85 53.47 36.95"/></g></g></svg>