<svg xmlns="http://www.w3.org/2000/svg" viewBox="0 0 89.53 89.38" fill="#ffa303"><g id="Camada_2" data-name="Camada 2"><g id="Camada_1-2" data-name="Camada 1"><path d="M62.15,48.22C86,41.93,89.56,29.61,89.53,22.74c0-9.14-6.46-17-12.22-18.41a7.08,7.08,0,0,0-6.62,1.55c0-1.62,0-2.65,0-2.92l0-3H18.85l0,3c0,.27,0,1.3,0,2.92a7.05,7.05,0,0,0-6.62-1.55C6.46,5.7,0,13.6,0,22.74c0,6.87,3.54,19.19,27.38,25.48a37.27,37.27,0,0,0,9.15,12.41v10H28.19a9.38,9.38,0,0,0,0,18.76H61.35a9.38,9.38,0,0,0,0-18.76H53v-10A37.27,37.27,0,0,0,62.15,48.22Zm-.8,28.4a3.38,3.38,0,0,1,0,6.76H28.19a3.38,3.38,0,0,1,0-6.76Zm7.8-52.91a9.79,9.79,0,0,0,5.12,2.41l.7-6a3.44,3.44,0,0,1-2.24-1.48c-.78-1.46-.23-4.27,1.53-7.7.42-.83.81-1,1.66-.82,3,.72,7.59,6.11,7.61,12.6,0,7.87-6.48,14.27-18.48,18.33A101.24,101.24,0,0,0,69.15,23.71ZM6,22.76c0-6.49,4.59-11.88,7.61-12.6.85-.2,1.24,0,1.66.82,2.38,4.66,2,6.8,1.55,7.67a3.4,3.4,0,0,1-2.26,1.51l.35,3,.35,3a9.79,9.79,0,0,0,5.12-2.41,101.34,101.34,0,0,0,4.1,17.39C12.48,37,6,30.63,6,22.76ZM44.77,58.82C27.44,51.08,25.14,16.41,24.85,6H64.68C64.39,16.4,62.09,51.07,44.77,58.82Z"/></g></g></svg>