<svg xmlns="http://www.w3.org/2000/svg" fill="#ffa303" viewBox="0 0 253.93 105.1"><defs><style>.cls-1{fill-rule:evenodd;}</style></defs><g id="Camada_2" data-name="Camada 2"><g id="Camada_1-2" data-name="Camada 1"><path class="cls-1" d="M0,53.91,43,35.67V65.05L0,53.91ZM49.22,73.55V27.93A3.14,3.14,0,0,1,52,24.82l23.56-3L127,0l127,53.91L183.72,72.12V59.9l-1-2.63a58.83,58.83,0,0,0-7.86-7.67c-13.34-10.79-31.27-16-48.91-15.8S90.77,39.54,78.25,50.1a53.71,53.71,0,0,0-7.12,7.26l-.91,2.54V72.12L55.48,68.3v5.25a5.51,5.51,0,0,1-.35,9.3,8.17,8.17,0,0,1,2.39,1.81l1.9,18a11.32,11.32,0,0,1-14.17,0l1.9-18a8,8,0,0,1,2.39-1.81,5.5,5.5,0,0,1-.32-9.3Zm29.44,29.56c32.2-16.69,64.36-15.69,96.62,0v-42C152,33.5,100,34.81,78.66,61.08Z"/></g></g></svg>