<svg xmlns="http://www.w3.org/2000/svg" viewBox="0 0 521.89 301.38"><defs><style>.cls-1{fill:#5db1ad;}.cls-1,.cls-2{fill-rule:evenodd;}.cls-2{fill:#f58220;}</style></defs><g id="Camada_2" data-name="Camada 2"><g id="Camada_1-2" data-name="Camada 1"><path class="cls-1" d="M1.89,294.08a7.54,7.54,0,0,1,.92-3.67A7,7,0,0,1,9,286.78a7.24,7.24,0,0,1,3.41.81,6.82,6.82,0,0,1,2.5,2.2l-2.45,1.68A4.29,4.29,0,0,0,11,290.12a4,4,0,0,0-2-.5,3.79,3.79,0,0,0-2.94,1.3,4.84,4.84,0,0,0,0,6.31A3.84,3.84,0,0,0,9,298.51a4.09,4.09,0,0,0,2-.53,4.72,4.72,0,0,0,1.52-1.43L15,298.24a6.78,6.78,0,0,1-2.51,2.27,7.23,7.23,0,0,1-3.46.84,6.91,6.91,0,0,1-2.82-.58,7.2,7.2,0,0,1-2.27-1.55,7.54,7.54,0,0,1-2-5.14Zm20.11,2v-9.14h3.07v9.14a2.31,2.31,0,0,0,.72,1.75,2.51,2.51,0,0,0,3.45,0,2.28,2.28,0,0,0,.73-1.74v-9.14h3v9.14a5.1,5.1,0,0,1-.76,2.77,5.19,5.19,0,0,1-2,1.86,5.74,5.74,0,0,1-2.69.64,5.87,5.87,0,0,1-2.73-.64A5.13,5.13,0,0,1,22,296.08Zm19.21,5.07V286.94H47a5.22,5.22,0,0,1,2.06.4,3.85,3.85,0,0,1,1.48,1.07,5,5,0,0,1,.85,1.48,5.11,5.11,0,0,1,.28,1.71,4.94,4.94,0,0,1-.88,2.89,4,4,0,0,1-2.58,1.62l3.44,5H48.08l-3.17-4.91h-.69v4.91Zm3-7.56h2.56a1.57,1.57,0,0,0,1.31-.61,2.2,2.2,0,0,0,.49-1.38,2.26,2.26,0,0,0-.46-1.37,1.48,1.48,0,0,0-1.26-.63H44.22v4ZM58.6,297h3a1.61,1.61,0,0,0,.58,1.19,2.26,2.26,0,0,0,1.54.49,2.54,2.54,0,0,0,1.5-.41,1.26,1.26,0,0,0,.58-1.08,1.22,1.22,0,0,0-.34-.92,3.14,3.14,0,0,0-1.36-.68l-1.7-.5C60,294.31,58.74,293,58.74,291a3.77,3.77,0,0,1,1.41-3,5.22,5.22,0,0,1,3.48-1.18A5,5,0,0,1,67.07,288a4,4,0,0,1,1.34,3.17h-3a1.54,1.54,0,0,0-.48-1.18,1.9,1.9,0,0,0-1.35-.45,2.15,2.15,0,0,0-1.32.39,1.23,1.23,0,0,0-.52,1c0,.67.51,1.15,1.54,1.43l1.7.51c2.65.79,3.93,2.23,3.85,4.34a3.79,3.79,0,0,1-.46,1.85,3.64,3.64,0,0,1-1.17,1.32,5.53,5.53,0,0,1-1.61.75,6.32,6.32,0,0,1-1.85.27A5.51,5.51,0,0,1,60,300.14,4,4,0,0,1,58.6,297Zm16.94-2.9a7.26,7.26,0,0,1,1-3.67,7.14,7.14,0,0,1,2.61-2.65A7.2,7.2,0,0,1,89,290.41a7.26,7.26,0,0,1,1,3.67,7.18,7.18,0,0,1-1,3.64,7.18,7.18,0,0,1-6.26,3.63,6.9,6.9,0,0,1-2.81-.58,7.31,7.31,0,0,1-2.3-1.56,7.47,7.47,0,0,1-2.09-5.13Zm3,0a4.44,4.44,0,0,0,1.22,3.14,4.08,4.08,0,0,0,6,0,4.64,4.64,0,0,0,0-6.29,3.94,3.94,0,0,0-3-1.31,3.9,3.9,0,0,0-3,1.3,4.47,4.47,0,0,0-1.22,3.16ZM96.72,297h3a1.65,1.65,0,0,0,.59,1.19,2.26,2.26,0,0,0,1.54.49,2.58,2.58,0,0,0,1.5-.41,1.28,1.28,0,0,0,.58-1.08,1.26,1.26,0,0,0-.34-.92,3.13,3.13,0,0,0-1.37-.68l-1.69-.5c-2.46-.76-3.69-2.11-3.69-4.07a3.79,3.79,0,0,1,1.4-3,5.25,5.25,0,0,1,3.49-1.18A5,5,0,0,1,105.2,288a4,4,0,0,1,1.34,3.17h-3a1.54,1.54,0,0,0-.48-1.18,1.9,1.9,0,0,0-1.35-.45,2.15,2.15,0,0,0-1.32.39,1.23,1.23,0,0,0-.52,1c0,.67.51,1.15,1.54,1.43l1.7.51c2.65.79,3.93,2.23,3.85,4.34a3.9,3.9,0,0,1-.46,1.85,3.64,3.64,0,0,1-1.17,1.32,5.53,5.53,0,0,1-1.61.75,6.32,6.32,0,0,1-1.85.27,5.51,5.51,0,0,1-3.73-1.24A4,4,0,0,1,96.72,297Zm32.84,4.17V286.94h5.81a5.25,5.25,0,0,1,2.08.4,3.81,3.81,0,0,1,1.47,1.07,4.51,4.51,0,0,1,.83,1.48,5.25,5.25,0,0,1,0,3.44,4.62,4.62,0,0,1-.83,1.48,3.85,3.85,0,0,1-1.47,1.05,5.28,5.28,0,0,1-2.08.39h-2.8v4.9Zm3-7.55h2.66a1.58,1.58,0,0,0,1.31-.62,2.2,2.2,0,0,0,.49-1.38,2.26,2.26,0,0,0-.46-1.37,1.48,1.48,0,0,0-1.25-.63h-2.75v4Zm14.67,7.55V286.94H153a5.22,5.22,0,0,1,2.06.4,3.89,3.89,0,0,1,1.47,1.07,4.75,4.75,0,0,1,.85,1.48,5.12,5.12,0,0,1,.29,1.71,4.94,4.94,0,0,1-.89,2.89,4,4,0,0,1-2.57,1.62l3.44,5h-3.54l-3.18-4.91h-.68v4.91Zm3-7.56h2.56a1.57,1.57,0,0,0,1.31-.61,2.19,2.19,0,0,0,.48-1.38,2.32,2.32,0,0,0-.45-1.37,1.48,1.48,0,0,0-1.26-.63h-2.64v4Zm14.31.49a7.26,7.26,0,0,1,1-3.67,7.14,7.14,0,0,1,2.61-2.65,7.23,7.23,0,0,1,7.27,0,7.09,7.09,0,0,1,2.62,2.65,7.35,7.35,0,0,1,.95,3.67,7.27,7.27,0,0,1-.95,3.64,7.18,7.18,0,0,1-6.26,3.63,6.9,6.9,0,0,1-2.81-.58,7.31,7.31,0,0,1-2.3-1.56,7.47,7.47,0,0,1-2.09-5.13Zm3,0a4.44,4.44,0,0,0,1.22,3.14,4.08,4.08,0,0,0,6,0,4.66,4.66,0,0,0,0-6.29,4,4,0,0,0-3-1.31,3.9,3.9,0,0,0-3,1.3,4.47,4.47,0,0,0-1.22,3.16Zm18.93,7.07V286.94h8.89v2.66h-5.88v3.24h4.66v2.62h-4.66v5.69Zm16.11,0V286.94h3v14.21Zm10.6-4.17h3a1.62,1.62,0,0,0,.59,1.19,2.23,2.23,0,0,0,1.54.49,2.53,2.53,0,0,0,1.49-.41,1.34,1.34,0,0,0,.25-2,3.2,3.2,0,0,0-1.37-.68l-1.7-.5c-2.46-.76-3.69-2.11-3.69-4.07a3.77,3.77,0,0,1,1.41-3,5.23,5.23,0,0,1,3.49-1.18,5,5,0,0,1,3.43,1.18,4,4,0,0,1,1.35,3.17h-3a1.54,1.54,0,0,0-.48-1.18,1.91,1.91,0,0,0-1.36-.45,2.17,2.17,0,0,0-1.32.39,1.26,1.26,0,0,0-.52,1c0,.67.52,1.15,1.55,1.43l1.69.51c2.66.79,3.94,2.23,3.86,4.34A3.9,3.9,0,0,1,223,299a3.74,3.74,0,0,1-1.17,1.32,5.58,5.58,0,0,1-1.62.75,6.25,6.25,0,0,1-1.84.27,5.51,5.51,0,0,1-3.73-1.24,4,4,0,0,1-1.43-3.16Zm17,0h3a1.62,1.62,0,0,0,.59,1.19,2.23,2.23,0,0,0,1.54.49,2.53,2.53,0,0,0,1.49-.41,1.29,1.29,0,0,0,.59-1.08,1.26,1.26,0,0,0-.34-.92,3.2,3.2,0,0,0-1.37-.68l-1.7-.5c-2.46-.76-3.69-2.11-3.69-4.07a3.77,3.77,0,0,1,1.41-3,5.22,5.22,0,0,1,3.48-1.18,5,5,0,0,1,3.44,1.18,4,4,0,0,1,1.35,3.17h-3a1.53,1.53,0,0,0-.47-1.18,1.91,1.91,0,0,0-1.36-.45,2.15,2.15,0,0,0-1.32.39,1.26,1.26,0,0,0-.52,1c0,.67.52,1.15,1.54,1.43l1.7.51c2.65.79,3.94,2.23,3.86,4.34A3.9,3.9,0,0,1,240,299a3.84,3.84,0,0,1-1.17,1.32,5.71,5.71,0,0,1-1.62.75,6.25,6.25,0,0,1-1.84.27,5.55,5.55,0,0,1-3.74-1.24,4,4,0,0,1-1.42-3.16ZM248,301.15V286.94h3v14.21Zm10.54-7.07a7.26,7.26,0,0,1,1-3.67,7.14,7.14,0,0,1,2.61-2.65,7.2,7.2,0,0,1,9.89,2.65,7.26,7.26,0,0,1,1,3.67,7.18,7.18,0,0,1-1,3.64,7.18,7.18,0,0,1-6.26,3.63,6.9,6.9,0,0,1-2.81-.58,7.31,7.31,0,0,1-2.3-1.56,7.47,7.47,0,0,1-2.09-5.13Zm3,0a4.44,4.44,0,0,0,1.22,3.14,4.08,4.08,0,0,0,5.95,0,4.64,4.64,0,0,0,0-6.29,3.94,3.94,0,0,0-3-1.31,3.9,3.9,0,0,0-3,1.3,4.47,4.47,0,0,0-1.22,3.16Zm18.94,7.07V286.94h2.76l4.87,8.5v-8.5h3v14.21h-2.69l-4.94-8.6v8.6Zm17.22,0L303,286.94h3.28l5.26,14.21h-3.18l-1.25-3.36h-4.91l-1.26,3.36Zm5.45-6h3l-1.5-4.95-1.45,4.95Zm14.94,6V286.94h3v11.55h5.33v2.66Zm15.55,0V286.94h3v14.21Zm10.56,0v-2.29l6.49-9.26h-6.22v-2.66h10.14v2.29l-6.56,9.26h6.56v2.66Zm16.29,0,5.28-14.21h3.28l5.25,14.21h-3.18l-1.25-3.36H365l-1.26,3.36Zm5.46-6h2.95l-1.5-4.95L366,295.17Zm14.93,6V286.94h2.76l4.87,8.5v-8.5h3v14.21h-2.69l-4.94-8.6v8.6Zm17.94-11.49v-2.72h10.7v2.72H405.7v11.49h-3.07V289.66Zm18,11.49V286.94h9v2.66h-6v3.24H425v2.62h-5.24v3H426v2.66ZM432.91,297h3a1.62,1.62,0,0,0,.59,1.19,2.22,2.22,0,0,0,1.53.49,2.54,2.54,0,0,0,1.5-.41,1.29,1.29,0,0,0,.59-1.08,1.26,1.26,0,0,0-.34-.92,3.2,3.2,0,0,0-1.37-.68l-1.7-.5c-2.46-.76-3.69-2.11-3.69-4.07a3.77,3.77,0,0,1,1.41-3,5.22,5.22,0,0,1,3.48-1.18,5,5,0,0,1,3.44,1.18,4,4,0,0,1,1.35,3.17h-3a1.53,1.53,0,0,0-.47-1.18,1.91,1.91,0,0,0-1.36-.45,2.15,2.15,0,0,0-1.32.39,1.26,1.26,0,0,0-.52,1c0,.67.52,1.15,1.54,1.43l1.7.51c2.65.79,3.94,2.23,3.86,4.34a3.9,3.9,0,0,1-.46,1.85,3.84,3.84,0,0,1-1.17,1.32,5.71,5.71,0,0,1-1.62.75,6.27,6.27,0,0,1-1.85.27,5.52,5.52,0,0,1-3.73-1.24A4,4,0,0,1,432.91,297Z"/><path class="cls-1" d="M222.52,266.11c122.79,0,222.33,1.16,222.33,2.59s-99.54,2.58-222.33,2.58S.19,270.12.19,268.7,99.74,266.11,222.52,266.11Z"/><path class="cls-1" d="M10.55,44.83h-7V55.38h8.2v3.51H2.34A2.07,2.07,0,0,1,0,56.55V43.66a2.07,2.07,0,0,1,2.34-2.35h9.38l-1.17,3.52Zm7,7v3.52h8.2v3.51H16.41a2.07,2.07,0,0,1-2.35-2.34V43.66a2.07,2.07,0,0,1,2.35-2.35h9.37v3.52h-8.2v3.52h4.69L21.1,51.86Zm10.55,7V43.65a2.07,2.07,0,0,1,2.34-2.34h9.39a2.07,2.07,0,0,1,2.34,2.34V58.89H38.69V44.82h-7V58.89Zm29.3-17.58v3.52H52.74V58.89H49.22V44.83H44.54V41.31ZM71.05,51.86l2.81,7H70.34l-2.94-7H63.29v7H59.77V43.66a2.07,2.07,0,0,1,2.35-2.35h9.37a2.07,2.07,0,0,1,2.35,2.35v5.86a2.07,2.07,0,0,1-2.35,2.34Zm-.73-3.51V44.83h-7v3.52Zm19.92,8.2a2.07,2.07,0,0,1-2.34,2.34H78.52a2.07,2.07,0,0,1-2.34-2.34V43.66a2.07,2.07,0,0,1,2.34-2.35H87.9a2.07,2.07,0,0,1,2.34,2.35V56.55ZM79.7,44.83V55.38h7V44.83Zm24.61,7v3.52h8.2v3.51h-9.37a2.07,2.07,0,0,1-2.35-2.34V43.66a2.07,2.07,0,0,1,2.35-2.35h9.37v3.52h-8.2v3.52H109l-1.18,3.51Zm10.55,7V41.31h11.73a2.07,2.07,0,0,1,2.34,2.35V56.55a2.07,2.07,0,0,1-2.34,2.34Zm10.54-14h-7V55.38h7V44.84Zm9.38-3.53V55.38h7V41.31h3.52V56.55A2.07,2.07,0,0,1,143,58.89h-9.39a2.07,2.07,0,0,1-2.35-2.34V41.31Zm23.44,3.52h-7V55.38h8.2v3.51H150a2.07,2.07,0,0,1-2.34-2.34V43.66A2.07,2.07,0,0,1,150,41.31h9.38l-1.17,3.52Zm3.51,14.06V43.65a2.07,2.07,0,0,1,2.35-2.34h9.37a2.07,2.07,0,0,1,2.35,2.34V58.89h-3.52v-4.7h-7v4.7Zm10.55-14.07h-7v5.86h7V44.82Zm16.41,0h-7V55.38h8.2v3.51h-9.37a2.07,2.07,0,0,1-2.35-2.34V43.66a2.07,2.07,0,0,1,2.35-2.35h9.37l-1.17,3.52Zm7-3.52V58.89h-3.51V41.31Zm16.41,15.24a2.07,2.07,0,0,1-2.34,2.34h-9.38a2.07,2.07,0,0,1-2.34-2.34V43.66a2.07,2.07,0,0,1,2.34-2.35h9.38a2.07,2.07,0,0,1,2.34,2.35V56.55ZM201.58,44.83V55.38h7V44.83Zm12.89,14.06V43.65a2.07,2.07,0,0,1,2.35-2.34h9.39a2.07,2.07,0,0,1,2.34,2.34V58.89H225V44.82h-7V58.89Zm16.41,0V43.65a2.07,2.07,0,0,1,2.35-2.34h9.37A2.07,2.07,0,0,1,245,43.65V58.89h-3.52v-4.7h-7v4.7Zm10.55-14.07h-7v5.86h7V44.82ZM259,58.89h-9.38a2.07,2.07,0,0,1-2.34-2.34V41.31h3.52V55.38H259Z"/><path class="cls-1" d="M204.15,253V218.3h23.13q4.62,0,4.62,4.63l0,25.42q0,4.62-4.63,4.62Zm20.79-27.71H211.08V246h13.86V225.26Zm18.49,13.84V246h16.18V253H241.12c-3.09,0-4.62-1.54-4.62-4.62V222.93c0-3.09,1.53-4.63,4.62-4.63h18.49v6.94H243.43v6.93h9.24l-2.31,6.93Zm43.91,0V246h16.17V253H285q-4.62,0-4.62-4.62V222.93q0-4.63,4.62-4.63h18.49v6.94H287.34v6.93h9.24l-2.31,6.93ZM308.13,253V222.91q0-4.62,4.62-4.62h18.52q4.62,0,4.62,4.62V253H329l0-27.75H315.07V253Zm57.8-27.75H347.42v6.95h16.17q4.64,0,4.63,4.6v11.55c0,3.09-1.54,4.62-4.63,4.62h-23.1V246l20.79,0v-6.93H345.11c-3.09,0-4.62-1.53-4.62-4.6V222.93c0-3.1,1.53-4.64,4.62-4.64h23.11l-2.29,6.93Zm13.84-6.92V253h-6.93V218.3ZM384.39,253V222.91q0-4.62,4.62-4.62h18.51c3.09,0,4.62,1.54,4.62,4.62V253h-6.93l0-27.75H391.32V253Zm60.08-4.62c0,3.08-1.53,4.62-4.62,4.62H421.36q-4.62,0-4.62-4.62V222.93q0-4.63,4.62-4.63h18.49c3.09,0,4.62,1.54,4.62,4.63v25.42Zm-20.79-23.11V246h13.86V225.24Z"/><path class="cls-1" d="M81.06,207.51H16.67q-16.11,0-16.09-16.1V86.78H24.72v96.58H81.06v24.15ZM121.3,86.78V207.51H97.16V86.78ZM111,64.91l8,8L108.8,79.83h-8L111,64.91Zm26.42,142.6V86.78H218q16.11,0,16.09,16.1L234,191.41q0,16.11-16.1,16.1ZM209.84,111H161.55v72.35h48.29V111Zm64.38,48.21v24.14h56.34v24.15H266.18q-16.12,0-16.1-16.1V102.88q0-16.11,16.1-16.1h64.38v24.15H274.22v24.14h32.2l-8.05,24.15Zm149.87,0,19.31,48.29H419.26l-20.19-48.29H370.81v48.29H346.66V102.88q0-16.11,16.1-16.1h64.38q16.11,0,16.1,16.1v40.24q0,16.11-16.1,16.1Zm-5-24.15V110.93H370.81v24.14Z"/><path class="cls-2" d="M268,53.91l43-18.24V65.05L268,53.91Zm49.22,19.64V27.93a3.14,3.14,0,0,1,2.74-3.11l23.56-3L394.92,0l127,53.91L451.67,72.12V59.9l-.95-2.63a58.83,58.83,0,0,0-7.86-7.67c-13.34-10.79-31.27-16-48.91-15.8s-35.22,5.74-47.74,16.3a53.71,53.71,0,0,0-7.12,7.26l-.91,2.54V72.12L323.44,68.3v5.25a5.5,5.5,0,0,1-.36,9.3,8.08,8.08,0,0,1,2.4,1.81l1.9,18a11.32,11.32,0,0,1-14.17,0l1.9-18a8,8,0,0,1,2.39-1.81,5.5,5.5,0,0,1-.32-9.3Zm29.44,29.56c32.2-16.69,64.36-15.69,96.62,0v-42c-23.27-27.57-75.32-26.27-96.62,0Z"/><path class="cls-2" d="M41.17,241.24H187.5v11.11H39.34a7,7,0,0,1-1.52-4.22,7.63,7.63,0,0,1,1.93-4.79c.49-.68,1-1.35,1.42-2.1Zm-8.94,10.09-17.41-9.51c-.06-.33-.12-.69-.16-1a31.68,31.68,0,0,1,0-10.16c0-.26.09-.52.13-.79l17.39-9.5a14.38,14.38,0,0,0-.1,1.66c0,4.08,1.69,6.25,3.39,8.41,1.13,1.46,2.28,2.92,2.28,5.29s-1.15,3.82-2.28,5.28c-1.7,2.15-3.39,4.33-3.39,8.41a11.75,11.75,0,0,0,.15,1.94ZM11.32,239.91l-7.48-4.08,7.47-4.08a35.38,35.38,0,0,0-.25,4,37.13,37.13,0,0,0,.26,4.2Zm30.49-20.85H187.5v11.12H43.64a24.28,24.28,0,0,0-1.42-2.11,7.65,7.65,0,0,1-1.92-4.79A7,7,0,0,1,41.81,219.06Z"/></g></g></svg>